<svg width="24" height="24" viewBox="0 0 24 24" xmlns="http://www.w3.org/2000/svg">
<path d="M21.1577 15.3477L19.0531 14.56C18.4959 14.3502 17.8883 14.3143 17.3103 14.4571C16.7323 14.5999 16.2113 14.9148 15.8161 15.36L13.7854 17.637C10.6008 16.0238 8.01386 13.4369 6.40075 10.2523L8.62844 8.18465C9.07725 7.79194 9.39549 7.2716 9.54065 6.69318C9.6858 6.11476 9.65095 5.50581 9.44075 4.94773L8.65306 2.84311C8.4401 2.27298 8.05623 1.78254 7.55394 1.43887C7.05165 1.0952 6.45546 0.915065 5.84691 0.92311H2.75767C2.27131 0.92311 1.80486 1.11632 1.46095 1.46023C1.11704 1.80414 0.923828 2.27059 0.923828 2.75696C0.930342 8.14416 3.07329 13.3088 6.88261 17.1182C10.6919 20.9275 15.8566 23.0704 21.2438 23.077C21.7302 23.077 22.1966 22.8837 22.5406 22.5398C22.8845 22.1959 23.0777 21.7295 23.0777 21.2431V18.1539C23.0857 17.5453 22.9056 16.9491 22.5619 16.4468C22.2182 15.9446 21.7278 15.5607 21.1577 15.3477Z" fill="currentColor" />
</svg>
