<svg width="11" height="19" viewBox="0 0 11 19" fill="none" xmlns="http://www.w3.org/2000/svg">
<path d="M0.408441 2.10059L7.56052 9.20119L0.359782 16.3502C0.245788 16.4625 0.155295 16.5961 0.0935479 16.7432C0.0317889 16.8904 -6.00602e-08 17.0482 -5.30922e-08 17.2076C-4.61233e-08 17.3671 0.031789 17.5249 0.093548 17.6721C0.155295 17.8192 0.245788 17.9528 0.359782 18.065C0.472862 18.1782 0.607392 18.2681 0.755612 18.3294C0.903832 18.3907 1.06282 18.4222 1.22339 18.4222C1.38396 18.4222 1.54294 18.3907 1.69116 18.3294C1.83938 18.2681 1.97391 18.1782 2.08699 18.065L10.1513 10.0586C10.2653 9.94636 10.3559 9.81281 10.4176 9.66565C10.4793 9.51848 10.5111 9.36065 10.5111 9.20119C10.5111 9.04179 10.4793 8.88399 10.4176 8.73679C10.3559 8.58969 10.2653 8.45609 10.1513 8.34379L9.28781 7.54679L2.13565 0.446194C2.02257 0.332994 1.88804 0.242992 1.73982 0.181793C1.5916 0.120394 1.43261 0.0888938 1.27204 0.0888938C1.11147 0.0888938 0.952491 0.120394 0.804271 0.181793C0.656051 0.242992 0.521521 0.332994 0.408441 0.446194C0.196348 0.670094 0.0782573 0.965893 0.0782573 1.27339C0.0782573 1.58079 0.196348 1.87649 0.408441 2.10059Z" fill="currentColor"/>
</svg>
