<svg width="11" height="19" viewBox="0 0 11 19" fill="none" xmlns="http://www.w3.org/2000/svg">
<path d="M10.1027 16.3216L2.95059 9.22105L10.1513 2.072C10.2653 1.95974 10.3558 1.82619 10.4176 1.67902C10.4793 1.53186 10.5111 1.37402 10.5111 1.21461C10.5111 1.05518 10.4793 0.897348 10.4176 0.750188C10.3558 0.603028 10.2653 0.469468 10.1513 0.357208C10.0382 0.244018 9.90372 0.154183 9.7555 0.092877C9.60728 0.03157 9.44829 0 9.28772 0C9.12715 0 8.96817 0.03157 8.81995 0.092877C8.67173 0.154183 8.5372 0.244018 8.42412 0.357208L0.359797 8.36361C0.245796 8.47588 0.155196 8.60943 0.0934963 8.75659C0.0317965 8.90376 -3.8147e-06 9.06159 -3.8147e-06 9.22105C-3.8147e-06 9.38045 0.0317965 9.53825 0.0934963 9.68545C0.155196 9.83255 0.245796 9.96615 0.359797 10.0784L1.2233 10.8754L8.37546 17.976C8.48854 18.0892 8.62307 18.1792 8.77129 18.2404C8.91951 18.3018 9.0785 18.3333 9.23907 18.3333C9.39964 18.3333 9.55862 18.3018 9.70684 18.2404C9.85506 18.1792 9.98959 18.0892 10.1027 17.976C10.3148 17.7521 10.4329 17.4563 10.4329 17.1488C10.4329 16.8414 10.3148 16.5457 10.1027 16.3216Z" fill="currentColor"/>
</svg>
