<svg width="20" height="20" viewBox="0 0 20 20" fill="currentColor" xmlns="http://www.w3.org/2000/svg">
<path d="M8.66667 8.66667V1.33333C8.66667 0.979711 8.80714 0.640573 9.05719 0.390525C9.30724 0.140476 9.64638 0 10 0C10.3536 0 10.6928 0.140476 10.9428 0.390524C11.1929 0.640573 11.3333 0.979711 11.3333 1.33333V8.66667H18.6667C19.0203 8.66667 19.3594 8.80714 19.6095 9.05719C19.8595 9.30724 20 9.64638 20 10C20 10.3536 19.8595 10.6928 19.6095 10.9428C19.3594 11.1929 19.0203 11.3333 18.6667 11.3333H11.3333V18.6667C11.3333 19.0203 11.1929 19.3594 10.9428 19.6095C10.6928 19.8595 10.3536 20 10 20C9.64638 20 9.30724 19.8595 9.05719 19.6095C8.80714 19.3594 8.66667 19.0203 8.66667 18.6667V11.3333H1.33333C0.979711 11.3333 0.640573 11.1929 0.390524 10.9428C0.140476 10.6928 0 10.3536 0 10C0 9.64638 0.140476 9.30724 0.390524 9.05719C0.640573 8.80714 0.979711 8.66667 1.33333 8.66667H8.66667Z" />
</svg>
