<svg width="16" height="16" viewBox="0 0 16 16" fill="none" xmlns="http://www.w3.org/2000/svg">
<path d="M15.83 6.74108L12.3239 10.1036L13.1519 14.8526C13.1879 15.0603 13.1012 15.2702 12.9279 15.3942C12.8299 15.4646 12.7134 15.5 12.5969 15.5C12.5074 15.5 12.4173 15.479 12.3352 15.4363L8 13.1941L3.66539 15.4358C3.47627 15.5343 3.24606 15.5183 3.0727 15.3937C2.89933 15.2696 2.81265 15.0598 2.84868 14.8521L3.67665 10.103L0.170011 6.74108C0.0169126 6.59378 -0.0388108 6.37338 0.027607 6.17347C0.0940249 5.97356 0.270201 5.82681 0.4824 5.79636L5.32809 5.10415L7.49511 0.783667C7.6848 0.405444 8.3152 0.405444 8.50489 0.783667L10.6719 5.10415L15.5176 5.79636C15.7298 5.82681 15.906 5.97301 15.9724 6.17347C16.0388 6.37394 15.9831 6.59323 15.83 6.74108V6.74108Z" fill="currentColor"/>
</svg>
