<svg width="95" height="95" viewBox="0 0 95 95" fill="none" xmlns="http://www.w3.org/2000/svg">
<mask id="mask0_708_34" style="mask-type:alpha" maskUnits="userSpaceOnUse" x="0" y="0" width="95" height="95">
<circle cx="47.5" cy="47.5" r="47.5" fill="#E8E8E8"/>
</mask>
<g mask="url(#mask0_708_34)">
<path d="M-19 -11H110V99H-19V-11Z" fill="#E8E8E8"/>
<path d="M-7 34C-7 34 12.5892 19.613 26.5 20.5001C43.2902 21.5708 52.2176 37.187 69 36.0002C81.4809 35.1175 98.5 20.5001 98.5 20.5001L106 96L-10.5 98L-7 34Z" fill="#70CFF8"/>
<path d="M-5.5 32.5C-5.5 32.5 8.27256 55.1002 19 54C38.5 52.0002 48.3284 37.404 68 38.5C85.5 39.475 98 53 98 53L105.5 97H-10.5L-5.5 32.5Z" fill="#1B97D2"/>
<path d="M-1.5 75C-1.5 75 11.5955 63.7881 21 63C32.5706 62.0304 37.4036 73.0853 49 72.5C63.7181 71.7572 63.5 53 81 53C90.2827 53 101 63 101 63L106 97H-5L-1.5 75Z" fill="#135E88"/>
</g>
</svg>
